<?xml version="1.0" encoding="UTF-8" standalone="no" ?>
<!DOCTYPE svg PUBLIC "-//W3C//DTD SVG 1.1//EN" "http://www.w3.org/Graphics/SVG/1.1/DTD/svg11.dtd">
<svg xmlns="http://www.w3.org/2000/svg" xmlns:xlink="http://www.w3.org/1999/xlink" version="1.1" width="1080" height="1080" viewBox="0 0 1080 1080" xml:space="preserve">
<desc>Created with Fabric.js 5.2.4</desc>
<defs>
</defs>
<rect x="0" y="0" width="100%" height="100%" fill="transparent"></rect>
<g transform="matrix(1 0 0 1 540 540)" id="dfd36ec3-1fb2-4b49-bb2f-1e792301246b"  >
<rect style="stroke: none; stroke-width: 1; stroke-dasharray: none; stroke-linecap: butt; stroke-dashoffset: 0; stroke-linejoin: miter; stroke-miterlimit: 4; fill: rgb(255,255,255); fill-rule: nonzero; opacity: 1; visibility: hidden;" vector-effect="non-scaling-stroke"  x="-540" y="-540" rx="0" ry="0" width="1080" height="1080" />
</g>
<g transform="matrix(1 0 0 1 540 540)" id="3418821b-20a2-473d-a473-5ae3b91c09d2"  >
</g>
<g transform="matrix(NaN NaN NaN NaN 0 0)"  >
<g style=""   >
</g>
</g>
<g transform="matrix(36.05 0 0 36.05 711.45 598.99)" id="SVGRepo_iconCarrier"  >
<path style="stroke: none; stroke-width: 50; stroke-dasharray: none; stroke-linecap: butt; stroke-dashoffset: 0; stroke-linejoin: miter; stroke-miterlimit: 4; fill: rgb(232,232,216); fill-rule: nonzero; opacity: 1;" vector-effect="non-scaling-stroke"  transform=" translate(-127.5, -124.36)" d="M 127.505 0 C 57.095 0 0 57.085 0 127.505 C 0 183.841 36.534 231.635 87.196 248.495 C 93.568 249.675 95.908 245.729 95.908 242.361 C 95.908 239.321 95.789 229.27599999999998 95.735 218.62199999999999 C 60.262 226.33499999999998 52.777 203.57799999999997 52.777 203.57799999999997 C 46.977000000000004 188.83999999999997 38.620000000000005 184.92199999999997 38.620000000000005 184.92199999999997 C 27.052000000000007 177.00799999999998 39.492000000000004 177.16999999999996 39.492000000000004 177.16999999999996 C 52.29600000000001 178.06999999999996 59.038000000000004 190.30999999999995 59.038000000000004 190.30999999999995 C 70.41 209.80299999999994 88.866 204.16699999999994 96.142 200.90999999999994 C 97.286 192.66799999999995 100.591 187.04399999999993 104.237 183.85999999999993 C 75.917 180.63499999999993 46.144999999999996 169.70199999999994 46.144999999999996 120.84599999999992 C 46.144999999999996 106.92599999999992 51.126 95.55099999999992 59.282999999999994 86.62199999999993 C 57.958999999999996 83.40999999999993 53.59499999999999 70.44199999999992 60.517999999999994 52.87899999999993 C 60.517999999999994 52.87899999999993 71.225 49.45199999999993 95.591 65.94899999999993 C 105.761 63.12299999999993 116.669 61.70699999999993 127.505 61.65899999999993 C 138.341 61.70699999999993 149.257 63.12299999999993 159.447 65.94899999999993 C 183.784 49.45199999999993 194.476 52.87899999999993 194.476 52.87899999999993 C 201.416 70.44199999999992 197.05 83.40999999999993 195.726 86.62199999999993 C 203.901 95.55099999999993 208.848 106.92499999999993 208.848 120.84599999999992 C 208.848 169.81799999999993 179.02 180.60199999999992 150.62800000000001 183.75799999999992 C 155.20100000000002 187.71499999999992 159.276 195.47499999999994 159.276 207.36999999999992 C 159.276 224.42999999999992 159.12800000000001 238.16099999999992 159.12800000000001 242.36099999999993 C 159.12800000000001 245.75399999999993 161.423 249.72999999999993 167.887 248.47799999999992 C 218.52100000000002 231.59899999999993 255.00900000000001 183.82199999999992 255.00900000000001 127.50499999999992 C 255.009 57.085 197.922 0 127.505 0" stroke-linecap="round" />
</g>
<g transform="matrix(36.05 0 0 36.05 -1676.06 2753.73)" id="SVGRepo_iconCarrier"  >
<path style="stroke: none; stroke-width: 1; stroke-dasharray: none; stroke-linecap: butt; stroke-dashoffset: 0; stroke-linejoin: miter; stroke-miterlimit: 4; fill: rgb(232,232,216); fill-rule: nonzero; opacity: 1;" vector-effect="non-scaling-stroke"  transform=" translate(-70.29, -194.08)" d="M 47.755 181.634 C 47.475 182.267 46.477000000000004 182.457 45.57 182.023 C 44.645 181.607 44.125 180.743 44.425 180.107 C 44.699999999999996 179.455 45.698 179.273 46.620999999999995 179.711 C 47.547999999999995 180.126 48.07599999999999 180.99800000000002 47.754999999999995 181.63400000000001 M 54.027 187.23 C 53.419000000000004 187.79399999999998 52.230000000000004 187.53199999999998 51.423 186.641 C 50.589 185.75199999999998 50.433 184.564 51.050000000000004 183.99099999999999 C 51.67700000000001 183.428 52.830000000000005 183.69099999999997 53.666000000000004 184.581 C 54.50000000000001 185.48 54.662000000000006 186.661 54.026 187.231 M 58.33 194.39 C 57.548 194.933 56.269999999999996 194.42399999999998 55.480999999999995 193.29 C 54.699999999999996 192.15699999999998 54.699999999999996 190.797 55.498 190.25199999999998 C 56.29 189.707 57.547999999999995 190.19699999999997 58.348 191.32199999999997 C 59.128 192.47499999999997 59.128 193.83499999999998 58.329 194.39099999999996 M 65.606 202.683 C 64.907 203.453 63.419 203.24699999999999 62.32899999999999 202.195 C 61.214999999999996 201.167 60.903999999999996 199.708 61.605 198.93699999999998 C 62.312 198.165 63.809 198.38199999999998 64.907 199.42499999999998 C 66.014 200.451 66.35199999999999 201.921 65.607 202.683 M 75.01 205.483 C 74.703 206.481 73.269 206.935 71.825 206.511 C 70.38300000000001 206.07399999999998 69.43900000000001 204.904 69.73 203.89499999999998 C 70.03 202.89 71.47 202.41699999999997 72.925 202.87099999999998 C 74.365 203.30599999999998 75.31099999999999 204.46699999999998 75.011 205.48299999999998 M 85.714 206.67 C 85.75 207.72199999999998 84.525 208.594 83.009 208.613 C 81.484 208.646 80.251 207.795 80.235 206.761 C 80.235 205.69899999999998 81.432 204.835 82.956 204.81 C 84.47200000000001 204.78 85.714 205.625 85.714 206.67000000000002 M 96.228 206.267 C 96.41 207.293 95.356 208.347 93.851 208.627 C 92.371 208.89700000000002 91.001 208.264 90.812 207.247 C 90.628 206.19500000000002 91.702 205.14200000000002 93.179 204.86900000000003 C 94.687 204.60700000000003 96.036 205.22400000000002 96.22800000000001 206.26700000000002" stroke-linecap="round" />
</g>
</svg>